<svg width="105" height="80" viewBox="0 0 105 80" fill="none" xmlns="http://www.w3.org/2000/svg">
<path d="M105 11.8234L86.4978 38.0806C90.6094 39.2066 94.0529 41.5611 96.8282 45.144C99.7063 48.6244 101.145 52.8215 101.145 57.7351C101.145 63.8772 98.9354 69.1491 94.5154 73.5509C90.0955 77.8503 84.6476 80 78.1718 80C71.5933 80 66.094 77.8503 61.674 73.5509C57.3568 69.1491 55.1982 63.7748 55.1982 57.428C55.1982 53.9475 55.8664 50.5182 57.2027 47.1401C58.5389 43.6596 60.9545 39.3602 64.4493 34.2418L87.7313 0C87.7313 0 93.4875 3.94114 105 11.8234ZM49.8018 11.8234L31.2996 38.0806C35.4112 39.2066 38.8546 41.5611 41.63 45.144C44.5081 48.6244 45.9471 52.8215 45.9471 57.7351C45.9471 63.8772 43.7372 69.1491 39.3172 73.5509C34.8972 77.8503 29.4493 80 22.9736 80C16.395 80 10.8957 77.8503 6.47577 73.5509C2.15859 69.1491 0 63.7748 0 57.428C0 53.9475 0.668135 50.5182 2.00441 47.1401C3.34068 43.6596 5.75624 39.3602 9.2511 34.2418L32.533 0C32.533 0 38.2893 3.94114 49.8018 11.8234Z" fill="black"/>
</svg>
